# xmcd
#
# Track frame offsets: 
#        150
#        19501
#        37111
#        52790
#        73191
#        89982
#        108705
#        130258
#        151591
#        170927
#        186944
#        211387
#
# Disc length: 3386 seconds
#
# Revision: 0
# Processed by: cddbd v1.5.2PL0 Copyright (c) Steve Scherf et al.
# Submitted via: ExactAudioCopy v1.0b1
#
DISCID=ae0d380c
DTITLE=The Billylee Janey Band - What's Your Trick
DYEAR=2008
DGENRE=
TTITLE0=What's Your Trick
TTITLE1=Broken Heart Song
TTITLE2=Just A Dream
TTITLE3=Dawg Howl Moan
TTITLE4=Mojo Talker
TTITLE5=Someday Soon
TTITLE6=Wicked Stick
TTITLE7=Thing Gone Wild
TTITLE8=Turbo Don
TTITLE9=Thank You For The Sunshine
TTITLE10=Wicked Stick Reprise
TTITLE11=Thank You For The Sunshine
EXTD=
EXTT0=
EXTT1=
EXTT2=
EXTT3=
EXTT4=
EXTT5=
EXTT6=
EXTT7=
EXTT8=
EXTT9=
EXTT10=
EXTT11=
PLAYORDER=
